PathFileType	4	(X/Y/Z)	..\data\2014025\dynamic\2014025_C4_04.trc
DataRate	CameraRate	NumFrames	NumMarkers	Units	OrigDataRate	OrigDataStartFrame	OrigNumFrames
100.000000	100.000000	4	52	mm	100.000000	76	152
Frame#	Time	L_IAS			L_IPS			R_IPS			R_IAS			L_FTC			L_FLE			L_FME			L_FAX			L_TTC			L_FAL			L_TAM			L_FCC			L_FM1			L_FM2			L_FM5			R_FTC			R_FLE			R_FME			R_FAX			R_TTC			R_FAL			R_TAM			R_FCC			R_FM1			R_FM2			R_FM5			CV7			TV10			SXS			SJN			L_SIA			L_SRS			L_SAA			L_SAE			L_HLE			L_HME			L_UOA			L_RSP			L_UHE			L_HM2			L_HM5			R_SIA			R_SRS			R_SAA			R_SAE			R_HLE			R_HME			R_UOA			R_RSP			R_UHE			R_HM2			R_HM5			
		X1	Y1	Z1	X2	Y2	Z2	X3	Y3	Z3	X4	Y4	Z4	X5	Y5	Z5	X6	Y6	Z6	X7	Y7	Z7	X8	Y8	Z8	X9	Y9	Z9	X10	Y10	Z10	X11	Y11	Z11	X12	Y12	Z12	X13	Y13	Z13	X14	Y14	Z14	X15	Y15	Z15	X16	Y16	Z16	X17	Y17	Z17	X18	Y18	Z18	X19	Y19	Z19	X20	Y20	Z20	X21	Y21	Z21	X22	Y22	Z22	X23	Y23	Z23	X24	Y24	Z24	X25	Y25	Z25	X26	Y26	Z26	X27	Y27	Z27	X28	Y28	Z28	X29	Y29	Z29	X30	Y30	Z30	X31	Y31	Z31	X32	Y32	Z32	X33	Y33	Z33	X34	Y34	Z34	X35	Y35	Z35	X36	Y36	Z36	X37	Y37	Z37	X38	Y38	Z38	X39	Y39	Z39	X40	Y40	Z40	X41	Y41	Z41	X42	Y42	Z42	X43	Y43	Z43	X44	Y44	Z44	X45	Y45	Z45	X46	Y46	Z46	X47	Y47	Z47	X48	Y48	Z48	X49	Y49	Z49	X50	Y50	Z50	X51	Y51	Z51	X52	Y52	Z52	

77	0.76	870.761169433594	901.0208740234377	-414.7883300781251	639.5164184570314	966.0950317382815	-351.3769226074219	634.6801757812501	958.4874267578127	-235.8942871093751	853.0966796875002	905.4696044921877	-145.2726440429688	770.3109130859377	846.8469848632815	-500.8394165039064	825.429382324219	468.9171447753907	-425.7800598144532	801.0315551757815	452.909393310547	-270.3221130371094	801.3776855468752	413.7951965332032	-430.1700439453126	852.551696777344	382.9858703613282	-366.9488220214844	760.1178588867189	66.96164703369142	-383.1001586914063	762.2236938476564	76.14539337158205	-294.3249816894532	711.6926269531251	20.46276473999024	-338.3942260742188	893.2781372070315	22.84309005737305	-273.5255432128907	901.7568969726565	40.5036735534668	-333.1424255371094	868.6033325195315	20.46507644653321	-386.5494689941407	761.3643188476564	827.6171875000002	-71.77889251708986	850.6406860351565	468.9780578613282	-103.8955917358399	907.4924926757815	460.1976318359376	-260.8083190917969	801.268249511719	429.2415161132814	-109.7299041748047	877.667907714844	373.4967651367188	-150.710922241211	600.3546142578126	175.5365295410157	-176.0032196044922	643.0258789062501	157.1183471679688	-253.0890045166016	555.3793334960939	147.4344329833985	-248.7776031494141	697.9412231445314	38.37115478515626	-210.0390777587891	694.0237426757814	70.15937805175783	-161.9272613525391	641.7870483398439	75.92776489257814	-128.1079406738282	718.9936523437501	1417.411376953125	-304.8424377441407	649.7756958007814	1195.303955078125	-291.6051025390626	901.8389892578127	1196.874267578125	-300.7667236328126	836.723327636719	1340.752685546875	-302.4553527832032	643.9682006835939	1237.009765625	-394.3643798828126	684.7567749023439	1367.382568359375	-389.2944335937501	728.4662475585939	1374.362915039063	-467.0639648437501	780.6556396484377	1378.012451171875	-487.709442138672	740.2355957031251	1062.86962890625	-558.3553466796876	728.9793090820314	1042.677124023438	-466.4438781738282	718.3215942382814	1041.462158203125	-512.5074462890626	842.3215332031252	835.7109985351565	-553.3628540039064	770.0351562500002	829.000671386719	-587.1339111328126	856.9509277343752	752.8953857421876	-565.1609497070314	766.2253417968751	762.2647094726564	-591.7271728515626	643.7481079101564	1231.704223632813	-188.3889923095703	680.5049438476564	1367.343017578125	-209.1392211914063	732.7175292968751	1375.519165039063	-144.0401458740235	784.626403808594	1377.200805664063	-127.9398422241211	776.680847167969	1060.6865234375	-40.52709960937501	758.5541381835939	1039.698364257813	-124.3777847290039	761.3058471679689	1027.425903320313	-72.81984710693361	928.0998535156252	852.2740478515627	-52.05480957031251	884.2136840820315	841.0567626953127	-2.939936876296998	956.7539672851565	780.3232421875002	-37.41878890991212	865.0927734375002	785.0999145507815	2.580656290054322	
78	0.77	883.7354736328127	901.6021118164065	-414.7236938476564	652.8214111328126	968.507507324219	-352.5701904296876	647.9113159179689	961.2617187500002	-237.3920288085938	865.7734375000002	908.447692871094	-145.1214599609375	782.4097290039065	847.4152832031252	-500.8484802246095	827.1648559570315	469.036102294922	-426.1803283691407	803.731628417969	453.3381652832032	-270.0518798828126	801.8760375976565	414.4855957031251	-430.2618408203126	853.766540527344	382.8792114257813	-367.9027404785157	760.0097045898439	67.37390899658205	-383.1605224609376	762.5146484375001	76.45195770263673	-294.3939819335938	711.6961669921876	21.01768875122071	-338.1154785156251	893.298278808594	22.87448883056641	-273.6434631347657	901.8063964843752	40.40429306030274	-333.2988281250001	868.5919189453127	20.30320358276368	-386.5545959472657	772.4642333984377	829.814636230469	-72.79778289794923	873.585876464844	473.3168334960939	-104.3156967163086	930.400573730469	466.5760498046876	-260.6726989746094	825.8056640625002	430.9852600097657	-110.2257995605469	904.3262939453127	378.5760498046876	-151.1434631347657	637.0634155273439	166.159912109375	-174.5828399658203	680.3721313476564	150.471664428711	-251.9986114501954	593.0880126953126	135.3632965087891	-247.1859741210938	743.5093383789064	35.80699920654298	-209.2841949462891	737.5606689453126	67.23799896240236	-161.1120758056641	685.0626220703126	69.23409271240236	-127.1634979248047	732.3821411132814	1418.838500976563	-304.7096252441407	663.1840209960939	1196.799438476563	-292.8158264160157	914.997497558594	1198.778686523438	-300.2666931152344	850.0711669921877	1342.430541992188	-302.1292724609376	657.5021972656251	1239.008056640625	-395.4865722656251	698.2968750000001	1369.26611328125	-389.333465576172	742.1436157226564	1376.71923828125	-466.8774719238282	794.4520263671877	1380.59423828125	-487.2226562500001	760.5422363281251	1064.893798828125	-559.4428100585939	747.3146972656251	1044.518920898438	-467.749481201172	737.8248291015626	1042.755004882813	-514.0764770507814	867.8902587890627	840.248229980469	-552.4168090820314	796.647155761719	831.7412719726565	-587.8164062500001	885.7573242187502	758.5668334960939	-565.5795898437501	795.356628417969	764.8509521484376	-593.8173217773439	656.6301269531251	1232.749755859375	-189.8152770996094	693.6921386718751	1368.2666015625	-209.6474761962891	745.3389892578126	1376.568725585938	-144.3475189208985	796.9182739257815	1378.373168945313	-127.8478469848633	785.3837890625002	1062.028198242188	-41.1819076538086	768.1228027343752	1041.671752929688	-125.6038284301758	769.7578125000002	1029.66845703125	-73.84875488281251	928.6431274414065	848.3264160156252	-49.17330551147462	883.4938964843752	839.069519042969	-0.7586407065391543	953.5186157226565	774.5263671875002	-34.37421417236329	861.855407714844	783.8039550781252	4.220169544219972	
79	0.78	896.656433105469	902.043395996094	-414.8301086425782	666.0248413085939	970.4544677734377	-353.5376281738282	661.1770629882814	963.6026611328127	-238.6181030273438	878.595642089844	910.9898681640627	-145.2733459472657	794.9134521484377	847.8718872070315	-500.9732971191407	828.9069824218752	469.1627502441407	-426.5879516601564	806.5769042968752	453.7750854492189	-269.7313537597657	802.4458007812502	415.2285766601564	-430.3095703125001	855.1157836914065	382.7806396484376	-368.8457946777344	759.9174804687501	67.82881164550783	-383.1217041015626	762.8844604492189	76.8262405395508	-294.3888549804688	711.6889648437501	21.6667594909668	-337.7424011230469	893.368835449219	22.88922309875489	-273.7734985351563	901.925964355469	40.31846237182618	-333.4666748046876	868.558532714844	20.18014335632325	-386.5635986328126	783.9565429687502	831.5993652343752	-73.7377395629883	895.8746337890627	477.2510375976564	-104.8443603515625	952.5146484375002	472.4678649902345	-260.7277832031251	849.8823852539065	432.144012451172	-110.6526565551758	930.4711914062502	383.3850708007813	-151.739730834961	674.7979125976564	156.2564849853516	-173.0504302978516	718.7638549804689	143.3365631103516	-250.7597198486329	632.2358398437501	122.783073425293	-245.4397277832032	789.7897949218752	33.29391098022462	-208.1863098144532	781.6788330078127	64.22031402587892	-159.9663848876953	729.0936279296876	62.52693557739259	-125.954330444336	745.7572631835939	1419.88134765625	-304.5732727050782	676.5568847656251	1197.924072265625	-293.9924316406251	928.185974121094	1200.31103515625	-299.7454223632813	863.4102172851565	1343.705810546875	-301.7778625488282	671.0811157226564	1240.60986328125	-396.6236877441407	711.8289184570314	1370.723876953125	-389.397186279297	755.8577270507814	1378.705200195313	-466.6812744140626	808.2822265625002	1382.836181640625	-486.7001953125001	780.8118896484377	1066.737670898438	-560.4671020507814	765.7390747070314	1046.16162109375	-468.9988403320314	757.3754882812501	1043.81396484375	-515.6291503906251	893.5090942382815	844.8294067382815	-551.4423217773439	823.3919677734377	834.511901855469	-588.4392089843751	914.6513671875002	764.4227294921876	-565.8777465820314	824.7373046875002	767.5818481445314	-595.7988281250001	669.4772338867189	1233.539184570313	-191.1862487792969	706.9711303710939	1368.855834960938	-210.1327667236329	757.9901123046876	1377.295654296875	-144.6976776123047	809.2532958984377	1379.209350585938	-127.7862854003907	793.9251708984377	1063.152221679688	-41.74570083618165	777.8159179687502	1043.282592773438	-126.7876052856446	778.1453247070315	1031.610961914063	-74.82415771484376	929.0474853515627	844.600280761719	-46.08038711547852	882.6549072265627	837.305114746094	1.504161953926087	950.1033325195315	769.2070312500002	-31.11718177795411	858.6043701171877	782.8448486328127	5.844027996063233	
80	0.79	909.5191650390627	902.2906494140627	-415.1094970703126	679.1340942382814	971.8687744140627	-354.2947387695313	674.4688110351564	965.4460449218752	-239.5770416259766	891.594177246094	912.9973144531252	-145.7058410644532	807.7696533203127	848.1695556640627	-501.2390441894532	830.7955322265627	469.2656250000001	-426.9795227050782	809.5694580078127	454.196014404297	-269.3904418945313	803.2398681640627	415.9730529785157	-430.3057861328126	856.6706542968752	382.6453857421876	-369.6985168457032	759.8532714843751	68.3057327270508	-382.9577026367188	763.3497924804689	77.27033996582033	-294.2855529785157	711.6823730468751	22.40077018737793	-337.2436218261719	893.500671386719	22.88599967956543	-273.9108276367188	902.111022949219	40.24486160278321	-333.6355590820313	868.4931640625002	20.10117149353028	-386.5651245117189	795.9223632812502	832.9443359375002	-74.56253051757814	917.4626464843752	480.6767883300782	-105.4682006835938	973.7874145507815	477.7182922363282	-260.9861755371094	873.4763793945315	432.6631774902345	-111.0020523071289	956.0480957031252	387.8605957031251	-152.4894561767578	713.6042480468751	146.1003875732422	-171.4087677001953	758.2165527343751	135.94189453125	-249.374984741211	672.8705444335939	109.9800109863282	-243.5419921875001	836.6849365234377	31.06234550476075	-206.6955871582032	826.3467407226565	61.36734008789064	-158.4619140625	773.8731689453127	56.13877487182619	-124.430908203125	759.1270751953126	1420.5224609375	-304.4304809570313	689.8894042968751	1198.655395507813	-295.1325073242188	941.4184570312502	1201.414794921875	-299.2060852050782	876.743591308594	1344.546020507813	-301.3942871093751	684.7094726562501	1241.783813476563	-397.7887573242189	725.3599853515626	1371.733520507813	-389.4989624023439	769.6378173828127	1380.275024414063	-466.4900207519532	822.1677856445315	1384.687866210938	-486.1552124023439	801.0068359375002	1068.341918945313	-561.4437866210939	784.2281494140627	1047.538452148438	-470.2142028808595	776.952331542969	1044.59423828125	-517.1798706054689	919.145690917969	849.4075317382815	-550.4524536132814	850.232116699219	837.258972167969	-589.0081787109376	943.5838623046877	770.4171142578127	-566.0136108398439	854.3093261718752	770.409118652344	-597.6200561523439	682.2836303710939	1234.033203125	-192.5050354003907	720.3365478515626	1369.08154296875	-210.5895080566407	770.664978027344	1377.655395507813	-145.0732727050782	821.6265258789065	1379.662231445313	-127.7385025024414	802.2933349609377	1064.00634765625	-42.20772552490235	787.5996704101565	1044.46044921875	-127.8825378417969	786.4570922851565	1033.193725585938	-75.73190307617189	929.4108886718752	841.0576782226565	-42.80601882934571	881.7944335937502	835.7099609375002	3.818171024322511	946.6486816406252	764.3314208984376	-27.67940711975098	855.4620361328127	782.1519165039065	7.439160823822023	
